<?xml version="1.0" standalone="no"?><!DOCTYPE svg PUBLIC "-//W3C//DTD SVG 1.1//EN" "http://www.w3.org/Graphics/SVG/1.1/DTD/svg11.dtd"><svg t="1608607742567" class="icon" viewBox="0 0 1024 1024" version="1.1" xmlns="http://www.w3.org/2000/svg" p-id="941" xmlns:xlink="http://www.w3.org/1999/xlink" width="200" height="200"><defs><style type="text/css"></style></defs><path d="M997.29220525 431.11796578L567.60639852 57.03855758c-15.16538144-15.16538144-35.38588997-20.22050852-55.60639852-20.22050853-20.22050852 0-40.44101708 10.11025427-55.60639852 20.22050853l-429.68580673 374.0794082c-30.33076281 30.33076281-30.33076281 75.82690708 0 106.15766992l10.1102543 10.11025427 90.99228845 30.33076278v313.4178826c0 55.60639852 45.49614425 101.10254278 101.10254277 101.10254278h237.59097548v-237.5909755c0-5.05512717 0-5.05512717 5.05512717-5.05512714h80.88203416c5.05512717 0 5.05512717 0 5.05512717 5.05512714v237.5909755h227.48072119c55.60639852 0 101.10254278-45.49614425 101.10254279-101.10254278v-313.4178826l90.99228847-25.27563567 15.16538143-10.11025427c15.16538144-15.16538144 20.22050852-35.38588997 20.22050855-55.60639851 5.05512717-25.2756357 0-40.44101708-15.16538143-55.60639852z m-176.92944985 90.99228849v369.02428108c0 10.11025427-5.05512717 15.16538144-10.11025425 20.22050853-5.05512717 5.05512717-15.16538144 10.11025427-20.22050858 10.11025429h-156.70894127v-166.81919554c0-40.44101708-35.38588997-75.82690708-75.82690705-75.82690708h-80.88203422c-40.44101708 0-75.82690708 35.38588997-75.82690706 75.82690708v166.81919554h-166.81919554c-20.22050852 0-30.33076281-15.16538144-30.33076283-30.33076282v-369.02428108l-121.32305131-35.38588997v-5.05512711L512 107.58982896s5.05512717-5.05512717 5.05512717 0l429.6858067 374.07940823v5.05512711l-126.37817847 35.38588997z" p-id="942"></path></svg>