<?xml version="1.0" standalone="no"?><!DOCTYPE svg PUBLIC "-//W3C//DTD SVG 1.1//EN" "http://www.w3.org/Graphics/SVG/1.1/DTD/svg11.dtd"><svg t="1608622931786" class="icon" viewBox="0 0 1024 1024" version="1.1" xmlns="http://www.w3.org/2000/svg" p-id="941" xmlns:xlink="http://www.w3.org/1999/xlink" width="200" height="200"><defs><style type="text/css"></style></defs><path d="M808.01849403 402.60186091c22.52314628 0 38.61110791-16.08796163 38.61110792-38.61110793 0-102.96295444-83.65740049-186.62035492-186.62035493-186.62035493-102.96295444 0-186.62035492 83.65740049-186.62035493 186.62035493 0 22.52314628 16.08796163 38.61110791 38.61110791 38.61110793s38.61110791-16.08796163 38.61110791-38.61110793c0-61.13425421 48.2638849-109.39813909 109.39813911-109.39813909s109.39813909 48.2638849 109.39813909 109.39813909v3.21759233c6.43518466 19.30555395 22.52314628 35.39351559 38.61110792 35.3935156z m-444.02774105 0c22.52314628 0 38.61110791-16.08796163 38.61110793-38.61110793 0-144.79165469 112.61573142-257.40738611 257.40738611-257.4073861s257.40738611 112.61573142 257.4073861 257.4073861c0 22.52314628 16.08796163 38.61110791 38.61110793 38.61110793s38.61110791-16.08796163 38.6111079-38.61110793c0-90.09258514-35.39351559-173.74998562-96.52776979-238.10183214-64.35184654-64.35184654-148.00924702-96.52776979-238.10183214-96.52776979-90.09258514 0-173.74998562 35.39351559-238.10183216 96.52776979-64.35184654 64.35184654-96.52776979 148.00924702-96.52776978 238.10183214 0 22.52314628 16.08796163 38.61110791 38.6111079 38.61110793z m592.03698807 122.26850838h-257.40738613v-164.09720863c-3.21759233-19.30555395-19.30555395-35.39351559-38.6111079-35.39351558-22.52314628 0-38.61110791 16.08796163-38.61110793 38.6111079v160.87961631H67.97225895c-22.52314628 0-38.61110791 16.08796163-38.6111079 38.61110794v395.76385612c0 22.52314628 16.08796163 38.61110791 38.6111079 38.61110793h888.0554821c22.52314628 0 38.61110791-16.08796163 38.6111079-38.61110793V560.2638849c0-22.52314628-16.08796163-35.39351559-38.6111079-35.39351561z m-38.61110793 392.54626383H106.58336688v-318.54164031h814.05085857v318.54164031z m-653.17124226-119.05091607c22.52314628 0 38.61110791-16.08796163 38.61110792-38.61110791s-16.08796163-38.61110791-38.61110792-38.61110792-38.61110791 16.08796163-38.61110791 38.61110792 16.08796163 38.61110791 38.61110791 38.61110791z m148.00924703 0c22.52314628 0 38.61110791-16.08796163 38.6111079-38.61110791s-16.08796163-38.61110791-38.6111079-38.61110792-38.61110791 16.08796163-38.61110793 38.61110792c3.21759233 22.52314628 16.08796163 38.61110791 38.61110793 38.61110791z m148.00924701 0c22.52314628 0 38.61110791-16.08796163 38.61110791-38.61110791s-16.08796163-38.61110791-38.61110791-38.61110792-38.61110791 16.08796163-38.61110791 38.61110792c3.21759233 22.52314628 16.08796163 38.61110791 38.61110791 38.61110791z" p-id="942"></path></svg>