<?xml version="1.0" standalone="no"?><!DOCTYPE svg PUBLIC "-//W3C//DTD SVG 1.1//EN" "http://www.w3.org/Graphics/SVG/1.1/DTD/svg11.dtd"><svg t="1608608065546" class="icon" viewBox="0 0 1024 1024" version="1.1" xmlns="http://www.w3.org/2000/svg" p-id="941" xmlns:xlink="http://www.w3.org/1999/xlink" width="200" height="200"><defs><style type="text/css"></style></defs><path d="M997.29220525 150.72691389c-5.39213565-16.17640687-21.56854242-26.96067808-43.1370849-26.9606781l-172.54833964 43.1370849c-10.78427122 5.39213565-21.56854242 10.78427122-26.96067808 21.56854246-5.39213565 10.78427122 0 21.56854242 5.39213561 32.35281371l37.74494927 37.74494928-204.90115329 177.94047524-107.8427123-97.05844102c-16.17640687-10.78427122-32.35281366-10.78427122-48.52922054 0l-231.86183139 231.86183139c-26.96067808-5.39213565-59.31349175 5.39213565-70.09776296 32.35281368-16.17640687 21.56854242-10.78427122 53.92135612 5.39213562 75.48989859 16.17640687 21.56854242 48.52922053 32.35281366 75.48989861 21.56854245 26.96067808-10.78427122 43.13708489-32.35281366 43.13708488-59.31349175 0-5.39213565 0-16.17640687-5.39213561-21.56854242l204.90115335-210.29328898 107.84271224 97.05844103c10.78427122 10.78427122 32.35281366 10.78427122 43.13708495 0l231.86183136-199.50901765 48.52922054 43.13708489c10.78427122 10.78427122 21.56854242 10.78427122 32.3528137 10.78427123 10.78427122-5.39213565 21.56854242-10.78427122 21.56854244-21.56854246l48.52922051-167.15620403c5.39213565-10.78427122 5.39213565-16.17640687 5.39213563-21.56854244z m-53.92135614 296.56745875c-16.17640687 0-32.35281366 16.17640687-32.35281366 32.3528137v258.82250944c0 16.17640687-16.17640687 32.35281366-32.35281367 32.35281369H129.1583714c-16.17640687 0-32.35281366-16.17640687-32.35281368-32.35281369V150.72691389c0-16.17640687 16.17640687-32.35281366 32.35281368-32.35281372h560.78210385c16.17640687 0 32.35281366-16.17640687 32.35281369-32.35281364s-16.17640687-32.35281366-32.35281369-32.35281369H129.1583714c-53.92135612 0-102.45057668 43.13708489-102.45057665 97.05844105v587.74278189c0 53.92135612 43.13708489 97.05844107 102.45057665 97.05844107h744.11471471c53.92135612 0 102.45057668-43.13708489 102.45057668-97.05844107v-258.82250944c0-16.17640687-16.17640687-32.35281366-32.35281368-32.3528137z m-16.17640683 458.33152719H75.23701529c-16.17640687 0-32.35281366 16.17640687-32.35281368 32.35281364s16.17640687 32.35281366 32.35281368 32.35281369h846.56529138c16.17640687 0 32.35281366-16.17640687 32.35281368-32.35281369 5.39213565-16.17640687-10.78427122-32.35281366-26.96067807-32.35281364z m0 0" p-id="942"></path></svg>