<?xml version="1.0" standalone="no"?><!DOCTYPE svg PUBLIC "-//W3C//DTD SVG 1.1//EN" "http://www.w3.org/Graphics/SVG/1.1/DTD/svg11.dtd"><svg t="1608607852286" class="icon" viewBox="0 0 1024 1024" version="1.1" xmlns="http://www.w3.org/2000/svg" p-id="941" xmlns:xlink="http://www.w3.org/1999/xlink" width="200" height="200"><defs><style type="text/css"></style></defs><path d="M964.47392089 448.65365108l-90.49478418-45.24739209-69.37933453 33.18142087 132.72568346 63.34634893c6.03298562 3.01649281 9.04947843 6.03298562 9.04947841 9.0494784 0 3.01649281-3.01649281 6.03298562-9.04947841 9.04947843l-398.17705039 190.03904677c-6.03298562 3.01649281-15.08246403 6.03298562-24.13194244 6.0329856-9.04947843 0-18.09895683-3.01649281-24.13194245-6.0329856L89.69100716 521.04947843c-6.03298562-3.01649281-9.04947843-6.03298562-9.0494784-9.04947843 0-3.01649281 3.01649281-6.03298562 9.0494784-9.04947843l132.72568347-63.34634891-72.39582734-36.19791367-90.49478418 45.24739209c-27.14843525 12.06597121-45.24739209 36.19791367-45.2473921 63.34634892 0 27.14843525 15.08246403 51.2803777 45.2473921 63.34634892l398.17705037 190.03904679c21.11544964 9.04947843 39.21440646 12.06597121 54.29687052 12.06597121s33.18142087-3.01649281 54.29687052-12.06597121L964.47392089 575.34634892c27.14843525-12.06597121 45.24739209-36.19791367 45.2473921-63.34634892 0-27.14843525-18.09895683-51.2803777-45.2473921-63.34634892z m-904.94784178-105.57724822l398.17705037 190.03904678c21.11544964 9.04947843 39.21440646 12.06597121 54.29687052 12.06597123s36.19791367-3.01649281 54.29687052-12.06597123L964.47392089 343.07640286c27.14843525-12.06597121 45.24739209-36.19791367 45.2473921-63.34634893 0-27.14843525-15.08246403-51.2803777-45.2473921-63.34634891L566.29687052 26.34465824c-21.11544964-9.04947843-39.21440646-12.06597121-54.29687052-12.06597123s-33.18142087 3.01649281-54.29687052 12.06597123L59.52607911 216.38370502c-27.14843525 12.06597121-45.24739209 36.19791367-45.2473921 63.34634891 0 27.14843525 18.09895683 51.2803777 45.2473921 63.34634893z m30.16492805-72.39582734l398.1770504-190.03904676c6.03298562-3.01649281 15.08246403-6.03298562 24.13194244-6.03298563 9.04947843 0 18.09895683 3.01649281 24.13194244 6.03298563L934.30899284 270.68057552c6.03298562 3.01649281 9.04947843 6.03298562 9.0494784 9.04947841 0 3.01649281-3.01649281 6.03298562-9.0494784 9.04947842l-398.1770504 190.03904678c-6.03298562 3.01649281-15.08246403 6.03298562-24.13194244 6.03298562-9.04947843 0-18.09895683-3.01649281-24.13194244-6.03298562L89.69100716 288.77953235c-6.03298562-3.01649281-9.04947843-6.03298562-9.0494784-9.04947842 0-3.01649281 3.01649281-6.03298562 9.0494784-9.04947841z m874.78291373 410.24302162l-90.49478418-42.23089929-69.37933453 33.18142086 132.72568346 63.34634894c6.03298562 3.01649281 9.04947843 6.03298562 9.04947841 9.04947842s-6.03298562 6.03298562-12.06597121 9.04947841l-398.1770504 190.03904676c-6.03298562 3.01649281-15.08246403 6.03298562-24.13194244 6.03298563-9.04947843 0-18.09895683-3.01649281-24.13194244-6.03298563L89.69100716 753.31942448c-6.03298562-3.01649281-9.04947843-6.03298562-9.0494784-9.04947841s3.01649281-6.03298562 9.0494784-9.04947842l132.72568347-63.34634894-72.39582734-36.19791365-90.49478418 45.24739208c-27.14843525 12.06597121-45.24739209 36.19791367-45.2473921 63.34634893s15.08246403 51.2803777 45.2473921 63.34634891l398.17705037 190.03904678c21.11544964 9.04947843 39.21440646 12.06597121 54.29687052 12.06597123s33.18142087-3.01649281 54.29687052-12.06597123L964.47392089 807.61629498c27.14843525-12.06597121 45.24739209-36.19791367 45.2473921-63.34634891 0-27.14843525-18.09895683-51.2803777-45.2473921-63.34634893z" p-id="942"></path></svg>