<?xml version="1.0" standalone="no"?><!DOCTYPE svg PUBLIC "-//W3C//DTD SVG 1.1//EN" "http://www.w3.org/Graphics/SVG/1.1/DTD/svg11.dtd"><svg t="1608608154317" class="icon" viewBox="0 0 1024 1024" version="1.1" xmlns="http://www.w3.org/2000/svg" p-id="941" xmlns:xlink="http://www.w3.org/1999/xlink" width="200" height="200"><defs><style type="text/css"></style></defs><path d="M180.25728157 805.82926487h402.83044382c-18.95672674-18.95672674-33.17427185-37.91345351-42.65263526-61.60936196H180.25728157c-42.65263523 0-80.56608876-33.17427185-80.56608875-80.56608878v-445.483079c0-42.65263523 33.17427185-80.56608876 80.56608875-80.56608877h559.22343965c42.65263523 0 80.56608876 33.17427185 80.56608875 80.56608877V464.6081831c23.69590847 9.47836338 42.65263523 23.69590847 61.60936199 42.65263518v-284.35090147c0-75.82690708-61.60936195-137.43626908-142.17545074-137.43626908H180.25728157c-75.82690708 0-142.17545075 61.60936195-142.17545079 137.43626908v445.48307902c0 75.82690708 61.60936195 137.43626908 142.17545079 137.43626904z m582.91934808 56.87018035c-9.47836338 0-23.69590847 4.73918172-33.17427182 4.73918167-14.2175451 0-28.43509013 0-37.91345356-4.73918167H71.25610262c-18.95672674 0-28.43509013 14.2175451-28.43509013 28.43509013 0 18.95672674 14.2175451 28.43509013 28.43509013 28.43509015h777.22579751l-61.60936203-61.60936198h-23.69590845z m213.26317614 23.69590842l-94.78363383-94.78363381c33.17427185-33.17427185 52.13099861-80.56608876 52.13099861-132.69708739 0-109.00117893-85.30527047-194.3064494-199.04563105-194.30644934-109.00117893 0-199.04563105 85.30527047-199.04563105 194.30644934s85.30527047 194.3064494 199.04563105 194.30644939c33.17427185 0 66.34854371-9.47836338 94.78363382-23.69590849l99.52281555 99.52281555c9.47836338 9.47836338 14.2175451 9.47836338 23.69590849 9.47836338s14.2175451 0 23.69590841-9.47836338c14.2175451-9.47836338 14.2175451-28.43509013 0-42.65263525zM734.74153952 796.35090153c-75.82690708 0-137.43626908-61.60936195-137.43626905-132.6970874s61.60936195-132.69708737 137.43626905-132.69708739c75.82690708 0 137.43626908 61.60936195 137.43626907 132.69708739S810.56844658 796.35090153 734.74153952 796.35090153z m-56.87018031-521.30998614l-184.82808595 142.17545075-56.87018034-71.08772535c-9.47836338-14.2175451-28.43509013-14.2175451-42.65263521-4.73918168l-194.30644939 142.17545076c-14.2175451 9.47836338-18.95672674 28.43509013-4.73918166 42.65263523 4.73918172 9.47836338 14.2175451 14.2175451 28.43509015 14.21754503 4.73918172 0 14.2175451 0 18.95672674-4.73918166l170.61054092-123.218724 56.8701803 71.0877254c9.47836338 14.2175451 28.43509013 14.2175451 42.65263523 4.73918166l208.52399444-161.13217751c14.2175451-9.47836338 14.2175451-28.43509013 4.7391817-42.65263524-14.2175451-14.2175451-33.17427185-18.95672674-47.39181693-9.47836339z" p-id="942"></path></svg>