<?xml version="1.0" standalone="no"?><!DOCTYPE svg PUBLIC "-//W3C//DTD SVG 1.1//EN" "http://www.w3.org/Graphics/SVG/1.1/DTD/svg11.dtd"><svg t="1608623091350" class="icon" viewBox="0 0 1024 1024" version="1.1" xmlns="http://www.w3.org/2000/svg" p-id="941" xmlns:xlink="http://www.w3.org/1999/xlink" width="200" height="200"><defs><style type="text/css"></style></defs><path d="M246.17157149 299.90284958c14.13981003 0 28.27962006-5.65592402 36.76350606-16.96777203 8.48388603-11.31184801 14.13981003-25.45165805 14.13981002-36.76350606 0-28.27962006-22.62369604-53.73127811-50.90331608-56.55924013-14.13981003 0-28.27962006 5.65592402-36.76350609 16.96777203-8.48388603 11.31184801-14.13981003 25.45165805-14.13981002 39.5914681 0 28.27962006 22.62369604 50.90331611 50.90331611 53.73127809z m152.7099483 0c14.13981003 0 28.27962006-5.65592402 36.76350606-16.96777203 8.48388603-11.31184801 14.13981003-25.45165805 14.13981003-36.76350606 0-28.27962006-22.62369604-53.73127811-50.90331609-56.55924013-14.13981003 0-28.27962006 5.65592402-36.76350608 16.96777203-8.48388603 11.31184801-14.13981003 25.45165805-14.13981003 39.5914681 0 28.27962006 22.62369604 50.90331611 50.90331611 53.73127809z m124.43032822-8.48388601c8.48388603 5.65592402 16.96777203 8.48388603 25.45165805 8.48388601s16.96777203-2.82796201 25.45165806-8.48388601c16.96777203-11.31184801 25.45165805-28.27962006 25.45165805-48.07535411 0-28.27962006-22.62369604-53.73127811-50.90331611-56.55924011-14.13981003 0-28.27962006 5.65592402-36.76350606 16.96777204-8.48388603 11.31184801-14.13981003 25.45165805-14.13981003 36.76350608 0 22.62369604 11.31184801 39.59146809 25.45165804 50.9033161zM876.80709872 31.24645905H147.19290128c-42.41943008 2.82796201-73.52701215 36.76350606-73.52701215 79.18293616v596.69998317c-2.82796201 42.41943008 31.10758207 79.18293616 73.52701215 79.18293616h333.69951665v135.74217628h-189.47345436c-16.96777203 2.82796201-31.10758207 16.96777203-31.10758207 33.93554406s14.13981003 33.93554407 31.10758207 33.93554406h443.99003486c16.96777203-2.82796201 31.10758207-16.96777203 31.10758207-33.93554406s-14.13981003-33.93554407-31.10758207-33.93554406h-189.47345436v-135.74217628H879.63506073c42.41943008-2.82796201 73.52701215-36.76350606 73.52701214-79.18293616V110.42939521c-2.82796201-42.41943008-33.93554407-76.35497415-76.35497415-79.18293616z m8.48388602 678.71088133c0 2.82796201 0 5.65592402-2.827962 8.48388603-2.82796201 2.82796201-5.65592402 2.82796201-5.65592402 2.82796201H147.19290128c-2.82796201 0-5.65592402 0-5.65592402-2.82796201-2.82796201-2.82796201-2.82796201-5.65592402-2.827962-8.48388603V110.42939521c0-2.82796201 0-5.65592402 2.827962-8.48388603 2.82796201-2.82796201 5.65592402-2.82796201 5.65592402-2.827962h729.61419744c2.82796201 0 5.65592402 0 5.65592402 2.827962 2.82796201 2.82796201 2.82796201 5.65592402 2.827962 8.48388603V709.95734038z m-212.09715041-330.87155464H226.37583743c-16.96777203 2.82796201-31.10758207 16.96777203-31.10758205 33.93554406s14.13981003 33.93554407 31.10758205 33.93554407h446.8179969c16.96777203-2.82796201 31.10758207-16.96777203 31.10758206-33.93554407s-11.31184801-33.93554407-31.10758206-33.93554406z m-149.88198632 127.25829024H226.37583743c-16.96777203 2.82796201-31.10758207 16.96777203-31.10758205 33.93554408s14.13981003 33.93554407 31.10758205 33.93554406h296.93601058c16.96777203-2.82796201 31.10758207-16.96777203 31.10758207-33.93554406 0-19.79573404-11.31184801-33.93554407-31.10758207-33.93554408z" p-id="942"></path></svg>